<svg width="100" height="100" viewBox="0 0 100 100" fill="none" xmlns="http://www.w3.org/2000/svg">
<circle cx="50" cy="50" r="49" fill="white" stroke="black" stroke-width="2"/>
<rect x="19" y="18" width="48" height="32" fill="white" stroke="black" stroke-width="2"/>
<path d="M40.9434 34.0762V41H28.4629V37.5039H30.0254V28.9004H28.4629V25.4629H36.5781V28.9004H35.0254V37.5039H37.5254L38.4629 34.0762H40.9434ZM52.0762 37.4844V41H43.375V37.4844H44.9766V28.9004H43.5996L43.1797 31.5762H40.4355V25.4629H55.0547V31.5762H52.3203L51.9004 28.9004H50.4746V37.4844H52.0762Z" fill="black"/>
<circle cx="70" cy="38" r="12" fill="black"/>
<path d="M69.5 36L78.5933 60.75H60.4067L69.5 36Z" fill="black"/>
<rect x="57" y="58" width="26" height="26" fill="black"/>
<path d="M19.2393 68.674C19.1882 68.1584 18.9688 67.7578 18.581 67.4723C18.1932 67.1868 17.6669 67.044 17.0021 67.044C16.5504 67.044 16.169 67.108 15.858 67.2358C15.5469 67.3594 15.3082 67.532 15.142 67.7536C14.9801 67.9751 14.8991 68.2266 14.8991 68.5078C14.8906 68.7422 14.9396 68.9467 15.0462 69.1214C15.157 69.2962 15.3082 69.4474 15.5 69.5753C15.6918 69.6989 15.9134 69.8075 16.1648 69.9013C16.4162 69.9908 16.6847 70.0675 16.9702 70.1314L18.1463 70.4126C18.7173 70.5405 19.2415 70.7109 19.7188 70.924C20.196 71.1371 20.6094 71.3991 20.9588 71.7102C21.3082 72.0213 21.5788 72.3878 21.7706 72.8097C21.9666 73.2315 22.0668 73.7152 22.071 74.2607C22.0668 75.0618 21.8622 75.7564 21.4574 76.3445C21.0568 76.9283 20.4773 77.3821 19.7188 77.706C18.9645 78.0256 18.0547 78.1854 16.9893 78.1854C15.9325 78.1854 15.0121 78.0234 14.228 77.6996C13.4482 77.3757 12.8388 76.8963 12.3999 76.2614C11.9652 75.6222 11.7372 74.8317 11.7159 73.8899H14.3942C14.424 74.3288 14.5497 74.6953 14.7713 74.9893C14.9972 75.2791 15.2976 75.4986 15.6726 75.6477C16.0518 75.7926 16.4801 75.8651 16.9574 75.8651C17.4261 75.8651 17.8331 75.7969 18.1783 75.6605C18.5277 75.5241 18.7983 75.3345 18.9901 75.0916C19.1818 74.8487 19.2777 74.5696 19.2777 74.2543C19.2777 73.9602 19.1903 73.7131 19.0156 73.5128C18.8452 73.3125 18.5938 73.142 18.2614 73.0014C17.9332 72.8608 17.5305 72.733 17.0533 72.6179L15.6278 72.2599C14.5241 71.9915 13.6527 71.5717 13.0135 71.0007C12.3743 70.4297 12.0568 69.6605 12.0611 68.6932C12.0568 67.9006 12.2678 67.2081 12.6939 66.6158C13.1243 66.0234 13.7145 65.5611 14.4645 65.2287C15.2145 64.8963 16.0668 64.7301 17.0213 64.7301C17.9929 64.7301 18.8409 64.8963 19.5653 65.2287C20.294 65.5611 20.8608 66.0234 21.2656 66.6158C21.6705 67.2081 21.8793 67.8942 21.892 68.674H19.2393ZM29.1039 68.1818V70.2273H23.1912V68.1818H29.1039ZM24.5336 65.8295H27.2566V74.983C27.2566 75.2344 27.2949 75.4304 27.3716 75.571C27.4483 75.7074 27.5549 75.8033 27.6912 75.8587C27.8319 75.9141 27.9938 75.9418 28.177 75.9418C28.3049 75.9418 28.4327 75.9311 28.5605 75.9098C28.6884 75.8842 28.7864 75.8651 28.8546 75.8523L29.2828 77.8786C29.1465 77.9212 28.9547 77.9702 28.7076 78.0256C28.4604 78.0852 28.16 78.1214 27.8063 78.1342C27.15 78.1598 26.5748 78.0724 26.0804 77.8722C25.5904 77.6719 25.209 77.3608 24.9363 76.9389C24.6635 76.517 24.5293 75.9844 24.5336 75.3409V65.8295ZM33.6774 78.1854C33.051 78.1854 32.4927 78.0767 32.0027 77.8594C31.5126 77.6378 31.1248 77.3118 30.8393 76.8814C30.5581 76.4467 30.4174 75.9055 30.4174 75.2578C30.4174 74.7124 30.5176 74.2543 30.7179 73.8835C30.9181 73.5128 31.1909 73.2145 31.536 72.9886C31.8812 72.7628 32.2733 72.5923 32.7122 72.4773C33.1554 72.3622 33.6199 72.2812 34.1056 72.2344C34.6767 72.1747 35.1369 72.1193 35.4863 72.0682C35.8358 72.0128 36.0893 71.9318 36.247 71.8253C36.4047 71.7187 36.4835 71.5611 36.4835 71.3523V71.3139C36.4835 70.9091 36.3556 70.5959 36.1 70.3743C35.8485 70.1527 35.4906 70.0419 35.0261 70.0419C34.536 70.0419 34.1461 70.1506 33.8564 70.3679C33.5666 70.581 33.3748 70.8494 33.2811 71.1733L30.7626 70.9688C30.8904 70.3722 31.1419 69.8565 31.5169 69.4219C31.8919 68.983 32.3755 68.6463 32.9679 68.4119C33.5645 68.1733 34.2548 68.054 35.0389 68.054C35.5843 68.054 36.1064 68.1179 36.6049 68.2457C37.1078 68.3736 37.5531 68.5717 37.9409 68.8402C38.3329 69.1087 38.6419 69.4538 38.8677 69.8757C39.0936 70.2933 39.2065 70.794 39.2065 71.3778V78H36.6241V76.6385H36.5474C36.3897 76.9453 36.1788 77.2159 35.9146 77.4503C35.6504 77.6804 35.3329 77.8615 34.9622 77.9936C34.5914 78.1214 34.1632 78.1854 33.6774 78.1854ZM34.4572 76.3061C34.8578 76.3061 35.2115 76.2273 35.5183 76.0696C35.8251 75.9077 36.0659 75.6903 36.2406 75.4176C36.4153 75.1449 36.5027 74.8359 36.5027 74.4908V73.4489C36.4174 73.5043 36.3002 73.5554 36.1511 73.6023C36.0062 73.6449 35.8422 73.6854 35.6589 73.7237C35.4757 73.7578 35.2924 73.7898 35.1092 73.8196C34.926 73.8452 34.7598 73.8686 34.6106 73.8899C34.291 73.9368 34.0119 74.0114 33.7733 74.1136C33.5346 74.2159 33.3493 74.3544 33.2172 74.5291C33.085 74.6996 33.019 74.9126 33.019 75.1683C33.019 75.5391 33.1532 75.8224 33.4217 76.0185C33.6944 76.2102 34.0396 76.3061 34.4572 76.3061ZM41.3191 78V68.1818H43.959V69.8949H44.0613C44.2402 69.2855 44.5407 68.8253 44.9625 68.5142C45.3844 68.1989 45.8702 68.0412 46.4199 68.0412C46.5563 68.0412 46.7033 68.0497 46.861 68.0668C47.0186 68.0838 47.1571 68.1072 47.2765 68.1371V70.5533C47.1486 70.5149 46.9718 70.4808 46.7459 70.451C46.5201 70.4212 46.3134 70.4062 46.1259 70.4062C45.7253 70.4062 45.3674 70.4936 45.052 70.6683C44.7409 70.8388 44.4938 71.0774 44.3105 71.3842C44.1316 71.6911 44.0421 72.0447 44.0421 72.4453V78H41.3191ZM54.3988 68.1818V70.2273H48.4862V68.1818H54.3988ZM49.8285 65.8295H52.5515V74.983C52.5515 75.2344 52.5898 75.4304 52.6665 75.571C52.7433 75.7074 52.8498 75.8033 52.9862 75.8587C53.1268 75.9141 53.2887 75.9418 53.4719 75.9418C53.5998 75.9418 53.7276 75.9311 53.8555 75.9098C53.9833 75.8842 54.0813 75.8651 54.1495 75.8523L54.5778 77.8786C54.4414 77.9212 54.2496 77.9702 54.0025 78.0256C53.7553 78.0852 53.4549 78.1214 53.1012 78.1342C52.445 78.1598 51.8697 78.0724 51.3754 77.8722C50.8853 77.6719 50.5039 77.3608 50.2312 76.9389C49.9585 76.517 49.8242 75.9844 49.8285 75.3409V65.8295Z" fill="black"/>
</svg>
