<svg width="100" height="100" viewBox="0 0 100 100" fill="none" xmlns="http://www.w3.org/2000/svg">
<circle cx="50" cy="50" r="50" fill="#F3ACAC"/>
<rect x="32.2705" y="12.0691" width="34.4241" height="55.2328" rx="17.2121" fill="white"/>
<rect x="47.085" y="74.1523" width="5.13793" height="13.7011" rx="2.56897" fill="white"/>
<path d="M73.0302 51.2028C74.2132 51.2028 75.1816 52.1635 75.083 53.3425C74.8623 55.983 74.2341 58.5779 73.2168 61.0338C71.9257 64.1507 70.0335 66.9827 67.648 69.3682C65.2625 71.7537 62.4304 73.646 59.3136 74.937C56.1968 76.228 52.8562 76.8925 49.4826 76.8925C46.109 76.8925 42.7684 76.228 39.6516 74.937C36.5348 73.646 33.7028 71.7537 31.3173 69.3682C28.9318 66.9827 27.0395 64.1507 25.7485 61.0338C24.7312 58.5779 24.1029 55.983 23.8822 53.3425C23.7837 52.1635 24.752 51.2028 25.935 51.2028V51.2028C27.1181 51.2028 28.066 52.1642 28.1842 53.3414C28.3928 55.4188 28.9046 57.4584 29.7065 59.3944C30.7822 61.9914 32.359 64.3511 34.3466 66.3388C36.3343 68.3265 38.6941 69.9032 41.2911 70.9789C43.8881 72.0547 46.6716 72.6083 49.4826 72.6083C52.2936 72.6083 55.0771 72.0547 57.6742 70.9789C60.2712 69.9032 62.6309 68.3265 64.6186 66.3388C66.6063 64.3511 68.183 61.9914 69.2587 59.3944C70.0607 57.4584 70.5725 55.4188 70.781 53.3414C70.8992 52.1642 71.8472 51.2028 73.0302 51.2028V51.2028Z" fill="white"/>
</svg>
